PathFileType	4	(X/Y/Z)	C:\Users\Willi\Documents\Github\OpenSimMatlabBasic\ExampleData\Trials\dynamic04\marker_experimental.trc
DataRate	CameraRate	NumFrames	NumMarkers	Units	OrigDataRate	OrigDataStartFrame	OrigNumFrames
150.000000	150.000000	2	179	mm	150.000000	45	366
Frame#	Time	LFHD			LBHD			RFHD			RBHD			C7			T10			CLAV			STRN			RBAK			LSHO			LUPA			LELB			LFRA			LWRB			LWRA			LFIN			RSHO			RUPA			RELB			RFRA			RWRB			RWRA			RFIN			SACR			LASI			LT1			LT2			LT3			LS1			LS2			LS3			LHEE			LTOE			RT1			RT2			RT3			RS1			RS2			RS3			RHEE			RTOE			SACO			SACA			SACL			SACP			RASI			RM5D			LM5D			LKNE			RKNE			LANK			RANK			LKJC			RKJC			LAJC			RAJC			LTHI			RTHI			LTIB			RTIB			P_ForcePlate1			P_ForcePlate2			P_ForcePlate3			funktRKJC			funktLKJC			funktRHIP			funktLHIP			LHJC			RHJC			LKNEshank			RKNEshank			LKJCshank			RKJCshank			LHF			COP_FP1			VECTIP_FP1			RawCentreFP1			COP_FP2			VECTIP_FP2			RawCentreFP2			COP_FP3			VECTIP_FP3			RawCentreFP3			LPelvisAngles			RPelvisAngles			LFootProgressAngles			RFootProgressAngles			LHipAngles			RHipAngles			LKneeAngles			RKneeAngles			LAnkleAngles			RAnkleAngles			LFFootAngles			RFFootAngles			LAbsAnkleAngle			RAbsAnkleAngle			RNeckAngles			LNeckAngles			RSpineAngles			LSpineAngles			LShoulderAngles			LElbowAngles			LWristAngles			RShoulderAngles			RElbowAngles			RWristAngles			RThoraxAngles			LThoraxAngles			RHeadAngles			LHeadAngles			LHipPower			LKneePower			LAnklePower			RHipPower			RKneePower			RAnklePower			LWaistPower			RWaistPower			LNeckPower			RNeckPower			LShoulderPower			RShoulderPower			LElbowPower			RElbowPower			LWristPower			RWristPower			F_ForcePlate1			F_ForcePlate2			F_ForcePlate3			LHipForce			RHipForce			LKneeForce			RKneeForce			LAnkleForce			RAnkleForce			LNormalisedGRF			RNormalisedGRF			LGroundReactionForce			RGroundReactionForce			LGRF			RGRF			LWaistForce			RWaistForce			LNeckForce			RNeckForce			LShoulderForce			RShoulderForce			LElbowForce			RElbowForce			LWristForce			RWristForce			Force_FP1			RawForceFP1			Force_FP2			RawForceFP2			Force_FP3			RawForceFP3			LHipMoment			RHipMoment			LKneeMoment			RKneeMoment			LAnkleMoment			RAnkleMoment			LGroundReactionMoment			RGroundReactionMoment			LWaistMoment			RWaistMoment			LNeckMoment			RNeckMoment			LShoulderMoment			RShoulderMoment			LElbowMoment			RElbowMoment			LWristMoment			RWristMoment			RawMomentFP1			RawMomentFP2			RawMomentFP3			
		X1	Y1	Z1	X2	Y2	Z2	X3	Y3	Z3	X4	Y4	Z4	X5	Y5	Z5	X6	Y6	Z6	X7	Y7	Z7	X8	Y8	Z8	X9	Y9	Z9	X10	Y10	Z10	X11	Y11	Z11	X12	Y12	Z12	X13	Y13	Z13	X14	Y14	Z14	X15	Y15	Z15	X16	Y16	Z16	X17	Y17	Z17	X18	Y18	Z18	X19	Y19	Z19	X20	Y20	Z20	X21	Y21	Z21	X22	Y22	Z22	X23	Y23	Z23	X24	Y24	Z24	X25	Y25	Z25	X26	Y26	Z26	X27	Y27	Z27	X28	Y28	Z28	X29	Y29	Z29	X30	Y30	Z30	X31	Y31	Z31	X32	Y32	Z32	X33	Y33	Z33	X34	Y34	Z34	X35	Y35	Z35	X36	Y36	Z36	X37	Y37	Z37	X38	Y38	Z38	X39	Y39	Z39	X40	Y40	Z40	X41	Y41	Z41	X42	Y42	Z42	X43	Y43	Z43	X44	Y44	Z44	X45	Y45	Z45	X46	Y46	Z46	X47	Y47	Z47	X48	Y48	Z48	X49	Y49	Z49	X50	Y50	Z50	X51	Y51	Z51	X52	Y52	Z52	X53	Y53	Z53	X54	Y54	Z54	X55	Y55	Z55	X56	Y56	Z56	X57	Y57	Z57	X58	Y58	Z58	X59	Y59	Z59	X60	Y60	Z60	X61	Y61	Z61	X62	Y62	Z62	X63	Y63	Z63	X64	Y64	Z64	X65	Y65	Z65	X66	Y66	Z66	X67	Y67	Z67	X68	Y68	Z68	X69	Y69	Z69	X70	Y70	Z70	X71	Y71	Z71	X72	Y72	Z72	X73	Y73	Z73	X74	Y74	Z74	X75	Y75	Z75	X76	Y76	Z76	X77	Y77	Z77	X78	Y78	Z78	X79	Y79	Z79	X80	Y80	Z80	X81	Y81	Z81	X82	Y82	Z82	X83	Y83	Z83	X84	Y84	Z84	X85	Y85	Z85	X86	Y86	Z86	X87	Y87	Z87	X88	Y88	Z88	X89	Y89	Z89	X90	Y90	Z90	X91	Y91	Z91	X92	Y92	Z92	X93	Y93	Z93	X94	Y94	Z94	X95	Y95	Z95	X96	Y96	Z96	X97	Y97	Z97	X98	Y98	Z98	X99	Y99	Z99	X100	Y100	Z100	X101	Y101	Z101	X102	Y102	Z102	X103	Y103	Z103	X104	Y104	Z104	X105	Y105	Z105	X106	Y106	Z106	X107	Y107	Z107	X108	Y108	Z108	X109	Y109	Z109	X110	Y110	Z110	X111	Y111	Z111	X112	Y112	Z112	X113	Y113	Z113	X114	Y114	Z114	X115	Y115	Z115	X116	Y116	Z116	X117	Y117	Z117	X118	Y118	Z118	X119	Y119	Z119	X120	Y120	Z120	X121	Y121	Z121	X122	Y122	Z122	X123	Y123	Z123	X124	Y124	Z124	X125	Y125	Z125	X126	Y126	Z126	X127	Y127	Z127	X128	Y128	Z128	X129	Y129	Z129	X130	Y130	Z130	X131	Y131	Z131	X132	Y132	Z132	X133	Y133	Z133	X134	Y134	Z134	X135	Y135	Z135	X136	Y136	Z136	X137	Y137	Z137	X138	Y138	Z138	X139	Y139	Z139	X140	Y140	Z140	X141	Y141	Z141	X142	Y142	Z142	X143	Y143	Z143	X144	Y144	Z144	X145	Y145	Z145	X146	Y146	Z146	X147	Y147	Z147	X148	Y148	Z148	X149	Y149	Z149	X150	Y150	Z150	X151	Y151	Z151	X152	Y152	Z152	X153	Y153	Z153	X154	Y154	Z154	X155	Y155	Z155	X156	Y156	Z156	X157	Y157	Z157	X158	Y158	Z158	X159	Y159	Z159	X160	Y160	Z160	X161	Y161	Z161	X162	Y162	Z162	X163	Y163	Z163	X164	Y164	Z164	X165	Y165	Z165	X166	Y166	Z166	X167	Y167	Z167	X168	Y168	Z168	X169	Y169	Z169	X170	Y170	Z170	X171	Y171	Z171	X172	Y172	Z172	X173	Y173	Z173	X174	Y174	Z174	X175	Y175	Z175	X176	Y176	Z176	X177	Y177	Z177	X178	Y178	Z178	X179	Y179	Z179	

46	0.3	-876.4815063476562	1251.897338867188	235.7762603759764	-1006.519592285156	1251.258544921875	225.7004699707029	-859.5123291015625	1258.352783203125	349.0301513671873	-991.5036010742188	1270.094360351562	391.5690917968748	-1060.680786132812	1120.621337890625	311.9125061035155	-1099.285522460938	973.5325927734375	314.1808471679686	-951.093994140625	1067.104614257812	306.2719726562498	-926.7765502929688	1012.773681640625	304.2991333007811	-1095.671020507812	1044.127807617188	392.3759155273436	-1019.578552246094	1091.966796875	173.3351135253905	-1052.449462890625	901.7109985351562	110.9493255615233	-1045.504028320312	838.9905395507812	87.2504348754881	-1012.207275390625	772.8583374023438	61.27001953124983	-937.095947265625	673.3447265625	36.00267410278305	-877.0643920898438	709.2888793945312	50.69753646850571	-856.4928588867188	667.326904296875	7.462877750396583	-1023.461791992188	1088.936645507812	444.3746032714842	-1066.77001953125	988.6276245117188	484.7071533203123	-1113.3251953125	844.0968017578125	506.4930114746092	-1140.123168945312	695.8851318359375	510.9265747070311	-1144.639526367188	651.7030029296875	515.3322143554686	-1073.552124023438	645.4522094726562	525.4368286132811	-1093.48974609375	583.0526733398438	548.1011962890624	-1085.640014648438	768.3272705078125	317.5100708007811	-966.4771728515625	730.9360961914062	191.7582855224608	-1027.865600585938	536.0992431640625	168.9228363037108	-1097.6259765625	436.8432922363281	191.2335205078123	-1032.415405273438	435.1468200683594	182.4261779785155	-1195.293334960938	254.0364074707031	190.6272125244139	-1314.610473632812	246.1842651367188	220.8078460693357	-1202.965209960938	156.9990844726562	202.5569763183592	-1338.930541992188	137.560531616211	279.3730468749998	-1223.486938476562	46.23826217651369	257.6281433105467	-904.904052734375	537.9174194335938	435.2454528808592	-914.33251953125	423.1318359375	417.3121948242186	-868.2697143554688	443.9351501464844	413.5127563476561	-860.9490966796875	228.876937866211	417.0645141601561	-926.72119140625	124.8755722045899	401.8005065917968	-788.5753784179688	164.9028472900391	397.2021179199218	-869.2433471679688	39.71660614013674	330.2919006347655	-716.5384521484375	51.86242675781252	362.9615478515624	-1049.386352539062	758.9977416992188	316.6257324218748	-1044.492309570312	757.7105712890625	316.0001525878905	-1050.059692382812	758.8934326171875	311.5724487304686	-1036.758056640625	808.3253784179688	313.9248657226561	-936.5337524414062	735.5732421875	416.4698486328123	-734.7225341796875	30.55485343933108	389.9249572753905	-1250.726318359375	26.79557991027833	230.5319824218749	-1066.284301757812	374.5510864257812	197.2616424560545	-862.2164306640625	387.6431884765625	400.5099487304686	-1312.954223632812	120.9234619140625	234.5896148681639	-832.4373168945312	56.84379196166994	378.6229248046874	-1062.604858398438	369.5699768066406	249.1385803222655	-873.5596313476562	382.7752685546875	349.2063598632811	-1291.762329101562	118.3269805908203	267.6891174316405	-818.2742309570312	68.74927520751955	343.7521972656249	-1040.36181640625	525.4428100585938	163.031524658203	-910.3549194335938	532.671875	446.8277282714842	-1222.7939453125	258.613037109375	174.9420928955076	-879.6239624023438	203.8536682128907	427.1397399902343	256.7200012207031	0.07899999618532701	396.4200134277344	-254.2699890136719	-0.2560999989509441	231.3000030517578	-861.6367797851562	2.031795291947629e-14	331.8173522949218	0	0	0	0	0	0	0	0	0	0	0	0	-1003.593933105469	671.4061889648438	260.7472534179686	-990.7156982421875	672.9646606445312	361.8990173339842	-1062.462158203125	369.1800537109375	201.0288696289061	-866.458984375	397.6864318847656	401.1506042480468	-1061.019775390625	366.3052062988281	253.1750183105467	-869.7408447265625	393.8474731445312	348.6259460449218	-0.7305798530578613	2.027970552444458	0.1906663328409193	256.7200012207031	0.07899999618532701	396.4200134277344	256.7200012207031	0.07899999618532701	396.4200134277344	256.7200012207031	0.07899999618532701	396.4200134277344	-254.2699890136719	-0.2560999989509441	231.3000030517578	-254.3016357421875	-0.508408188819871	231.3088226318359	-254.2699890136719	-0.2560999989509441	231.3000030517578	-861.6367797851562	2.031795291947629e-14	331.8173522949218	-915.316650390625	273.83544921875	338.8813476562499	-254.2699890136719	-0.2560999989509441	231.3000030517578	-14.3596305847168	-7.057181835174561	-3.036062240600587	-14.3596305847168	7.057181835174561	3.036062240600584	-41.1065673828125	-4.171337127685547	-2.973760604858403	-1.528848886489868	-8.677775382995605	-3.225891828536987	-3.921946763992309	2.225797176361084	-4.747080802917481	-36.72004318237305	6.062331199645996	0.5565209388732861	-31.65869903564453	-21.88699722290039	2.343300580978391	-11.9735803604126	-38.29464340209961	1.532709479331971	-1.613527774810791	23.19511222839355	-0.5859096646308916	11.64127826690674	15.21858215332031	2.617260456085206	-6.361109437179021e-15	-2.484808473159728e-16	6.460501871396608e-16	-5.963540229704229e-16	3.975693398236887e-16	-7.081703658814304e-16	-7.184637546539307	0	-8.798643374403255e-16	6.703030109405518	0	8.2088443680718e-16	1.6366286277771	-3.754439353942872	-5.530904293060303	1.636628627777099	3.754439353942872	5.530904293060303	10.44578170776367	3.975804567337036	2.387220382690431	10.44578170776367	-3.975804567337036	-2.387220382690428	3.573658943176268	-9.875766754150389	15.06049346923828	-51.37006378173828	3.49065871693699e-12	-6.29101841823033e-15	-13.92972278594971	106.2995071411133	6.045631408691398	25.11887550354004	-6.155581474304198	8.514890670776371	-34.41035842895508	5.416882220554697e-12	-2.897105127329247e-15	-7.802934646606445	85.55815124511719	3.091983795166009	-4.057363033294678	3.144439697265625	0.08384758979082038	-4.057363033294678	-3.144439697265625	-0.08384758979082138	1.759030222892761	7.087512969970703	5.374834537506104	1.759030222892762	-7.087512969970703	-5.374834537506104	4.541336086390114e-33	0.6056084632873535	-3.708282330507024e-17	-1.204710092188005e-33	-0.1606537401676178	9.837204433366185e-18	-4.135842258446142e-34	-0.05515339598059654	3.377171492487203e-18	-2.518790693782349e-34	-0.03358925506472588	2.056748685038028e-18	-5.939163576713689e-33	-0.7920153141021729	4.849695096454558e-17	1.029353896019296e-33	0.1372691690921783	-8.40531242751765e-18	nan	nan	nan	nan	nan	nan	nan	nan	nan	nan	nan	nan	1.261357375862773e-34	0.01682079210877419	-1.029976460756668e-18	7.274021627931337e-35	0.009700248949229717	-5.939689413303324e-19	-8.264689996047727e-36	-0.001102135167457163	6.748631525270736e-20	2.929134345307898e-35	0.003906138008460402	-2.391819704544425e-19	-9.194253294306606e-37	-0.0001226096792379394	7.507677561161311e-21	1.044265284776342e-35	0.001392576727084816	-8.527073156957583e-20	256.7200012207031	0.07899999618532701	396.4200134277344	-254.3016204833985	-0.508408188819871	231.3088226318359	-915.316650390625	273.83544921875	338.8813476562499	-0.7305798530578613	2.027970552444458	0.1906663328409193	1.344952464103699	-5.595761775970459	0.1951101273298269	-0.08857054263353348	1.035882115364075	-0.03641712293028839	0.01491946168243885	-6.901771545410156	0.02804146707057996	0.2575742602348328	0.008583663962781428	-0.01744935102760789	-7.288656234741211	1.583172678947449	0.02389411628246208	0	0	0	0	0	0	0	0	0	0	0	0	0	0	0	0	0	0	nan	nan	nan	nan	nan	nan	nan	nan	nan	nan	nan	nan	-0.1834292262792587	0.53495192527771	-0.1794703751802445	-0.1706168204545975	0.5939724445343018	0.1215246617794036	0.08981015533208848	0.2114679366350174	-0.0637933760881424	0.1142983138561249	0.2548910677433014	0.05779988318681717	-0.01886888965964317	0.05359527841210365	-0.01064994651824236	-0.01532894186675549	0.06449881941080093	0.05063490197062492	256.7200012207031	0.07899999618532701	396.4200134277344	0	0	0	-254.3016204833985	-0.508408188819871	231.3088226318359	-0.03163701295852661	-0.252308189868927	0.008816275745630276	-915.316650390625	273.83544921875	338.8813476562499	-0.03163701295852661	-0.252308189868927	0.008816275745630276	271.2317504882812	5.547276020050051	38.35011672973636	-12.89272499084474	-63.30248641967773	101.0291442871094	-25.50254058837891	-0.9898065924644479	-13.92072296142578	-451.5346984863281	-37.37188339233399	-140.0946807861329	11.25290012359619	-0.856020987033844	0.6247444748878492	444.1347961425781	-39.07705688476562	13.06633472442633	nan	nan	nan	nan	nan	nan	nan	nan	nan	nan	nan	nan	nan	nan	nan	nan	nan	nan	-28.28880500793457	-5.001644611358641	28.76153755187988	-0.3575026988983188	-4.408712387084959	27.43131446838379	3.30994153022766	-0.07250913232564887	6.344615459442139	19.83283233642578	0.01080476120114374	7.817200183868411	-0.2949870228767395	-2.494130512714287e-16	-0.07734113931655888	-0.8733366727828983	-2.746216513880267e-15	3.101474523544312	0	0	0	-8.811169624328615	-13.5677375793457	14.46193504333496	-8.811169624328615	-13.5677375793457	14.46193504333496	
47	0.3066666666666667	-868.4157104492188	1252.363525390625	236.4996948242186	-998.4749755859375	1252.015747070312	226.4262084960936	-851.4371948242188	1258.983276367188	349.7371826171873	-983.4088134765625	1271.113525390625	392.270538330078	-1052.823974609375	1121.182006835938	312.6309509277342	-1091.049560546875	973.9647216796875	314.562774658203	-943.1041259765625	1067.974853515625	307.0593872070311	-918.621826171875	1013.779724121094	305.0488281249998	-1087.760986328125	1044.31884765625	392.9217834472655	-1011.564147949219	1092.856811523438	174.0437774658201	-1044.763061523438	902.587158203125	112.1528244018553	-1038.072631835938	839.815673828125	88.60125732421857	-1005.205810546875	773.4201049804688	62.72108840942366	-930.792724609375	673.435791015625	37.55990982055648	-870.5130004882812	708.852783203125	52.50538253784165	-850.1737060546875	666.7344970703125	9.377581596374366	-1015.845275878906	1089.43408203125	445.0269165039061	-1058.787109375	988.9606323242188	485.1533203124998	-1104.732788085938	844.2180786132812	507.0575256347655	-1130.192749023438	695.7273559570312	511.807159423828	-1134.301513671875	651.5084838867188	516.2576293945311	-1063.284423828125	646.021728515625	527.2114868164061	-1082.890380859375	583.6967163085938	550.2640380859374	-1077.194213867188	769.126708984375	317.638702392578	-957.7657470703125	731.04833984375	192.3990631103514	-1017.710632324219	536.1762084960938	168.5631103515624	-1086.059448242188	435.8981323242188	190.2714691162108	-1020.973999023438	435.0903625488281	181.0576324462889	-1185.877807617188	256.8810119628906	189.3076019287108	-1304.900268554688	251.5712280273438	221.4488830566404	-1195.787231445312	159.9519653320312	199.9943237304686	-1330.388061523438	144.1090545654297	278.3610229492186	-1221.5517578125	45.84576797485353	257.4159545898436	-896.5909423828125	539.1427612304688	435.3430786132811	-906.52001953125	424.3626098632812	418.0176391601561	-860.4263305664062	445.0049438476562	413.6209716796874	-855.5979614257812	229.1883697509766	417.4669494628905	-923.0010986328125	126.3677673339844	403.6012573242186	-784.454345703125	164.0876922607422	396.5170593261718	-868.2921752929688	40.54527282714846	330.7355957031249	-714.900146484375	50.4415969848633	362.7052307128905	-1040.80908203125	759.76416015625	316.9306030273436	-1035.91455078125	758.4736938476562	316.316436767578	-1041.477661132812	759.6333618164062	311.8772888183592	-1028.177490234375	809.0767822265625	313.9830017089842	-928.0675659179688	736.8604125976562	416.8988952636717	-733.479248046875	29.4383125305176	390.0845336914061	-1249.434936523438	28.00880050659181	230.4916992187499	-1053.984008789062	373.8908996582031	195.4817810058592	-854.66259765625	388.6127319335938	400.7906494140624	-1306.15869140625	126.183090209961	233.4254608154295	-830.0584106445312	56.70848846435549	378.937774658203	-1049.918579101562	368.4279479980469	247.2813262939451	-866.5750732421875	383.5555419921875	349.6346130371093	-1284.485595703125	122.5720825195313	266.1156311035155	-816.32275390625	68.35128784179689	343.8082885742186	-1030.365966796875	525.9215698242188	162.3241577148436	-901.5693359375	533.749267578125	447.0783691406248	-1213.8349609375	262.4811706542969	174.3139495849608	-874.1237182617188	204.6906890869141	428.0825805664061	256.7200012207031	0.07899999618532701	396.4200134277344	-254.2699890136719	-0.2560999989509441	231.3000030517578	-844.1741943359375	2.060607268071673e-14	336.5227050781249	0	0	0	0	0	0	0	0	0	0	0	0	-994.9644165039062	671.8795776367188	261.5574951171873	-982.183837890625	673.9693603515625	362.7120666503905	-1049.978637695312	368.4483947753906	199.0281982421873	-859.09619140625	398.024658203125	401.2704772949218	-1047.731689453125	364.786865234375	251.0965118408201	-863.3099975585938	394.125	348.8168334960936	-0.7183189988136292	2.037918567657471	0.1817027330398558	256.7200012207031	0.07899999618532701	396.4200134277344	256.7200012207031	0.07899999618532701	396.4200134277344	256.7200012207031	0.07899999618532701	396.4200134277344	-254.2699890136719	-0.2560999989509441	231.3000030517578	-254.3016357421875	-0.508408188819871	231.3088226318359	-254.2699890136719	-0.2560999989509441	231.3000030517578	-844.1741943359375	2.060607268071673e-14	336.5227050781249	-888.013427734375	317.9638061523438	339.6008300781249	-254.2699890136719	-0.2560999989509441	231.3000030517578	-14.36767387390137	-6.928654670715332	-3.314020156860353	-14.36767387390137	6.928654670715332	3.314020156860349	-45.18806838989258	-3.423405408859253	-3.304240942001348	-2.123812437057495	-8.517467498779297	-3.193749189376831	-4.809320926666259	1.711946010589599	-5.415926933288575	-36.49642944335938	6.663134098052979	0.9624510407447766	-33.8063850402832	-22.58047294616699	2.352474212646482	-12.58438491821289	-37.95814514160156	1.826995372772217	1.479333281517029	25.095458984375	0.5826103687286364	11.25656604766846	14.41872215270996	2.373334407806397	-3.18055471858951e-15	8.696829391361261e-17	1.292100374279323e-15	1.192708045940846e-15	-3.975693398236889e-16	-1.41634073176286e-15	-4.37242603302002	0	-5.354677545846526e-16	6.357049942016602	0	7.785140863510499e-16	1.322617173194886	-3.867394447326661	-5.703529834747314	1.322617173194885	3.867394447326661	5.703529834747314	10.62496566772461	3.913779973983765	2.776210546493531	10.62496566772461	-3.913779973983765	-2.776210546493528	3.95542526245117	-9.900134086608885	14.78856468200684	-51.20128631591797	2.584200648608759e-12	-4.680071780607014e-15	-13.95922946929932	106.6844177246094	5.866775512695305	24.92584609985352	-6.680322647094726	8.599209785461429	-34.50473403930664	1.062702877085986e-12	-2.883814671218263e-15	-7.817097663879395	85.50218963623047	3.459119319915765	-3.903501272201538	3.058183908462524	-0.02234588004648752	-3.903501272201538	-3.058183908462524	0.02234588004648656	1.894654154777526	7.087184906005859	5.477706432342529	1.894654154777528	-7.087184906005859	-5.477706432342529	4.919104057902316e-33	0.6559855937957764	-4.016753288643867e-17	-1.280931628364476e-33	-0.1708182394504547	1.045960050894928e-17	-4.841027624257146e-34	-0.06455737352371216	3.952999042358709e-18	2.154746784592706e-33	0.2873455882072449	-1.759484274235579e-17	-2.912976351615933e-33	-0.3884590566158295	2.37862570142188e-17	1.28108236671901e-33	0.1708383411169052	-1.046083138102308e-17	nan	nan	nan	nan	nan	nan	nan	nan	nan	nan	nan	nan	1.018631890270139e-34	0.01358393393456936	-8.317760606399738e-19	6.510234072950692e-35	0.008681702427566051	-5.316009544534285e-19	-1.319637070575107e-35	-0.00175979791674763	1.077565442945583e-19	3.472237813523195e-35	0.004630391951650381	-2.835297341193152e-19	-1.416629600724101e-36	-0.0001889142004074529	1.156765854212344e-20	1.058934670871169e-35	0.001412139041349292	-8.64685778469711e-20	256.7200012207031	0.07899999618532701	396.4200134277344	-254.3016204833985	-0.508408188819871	231.3088226318359	-888.013427734375	317.9638061523438	339.6008300781249	-0.7183189392089844	2.037918567657471	0.1817027330398558	2.085198879241943	-6.657176494598389	0.2850307822227485	-0.05639006942510604	1.043135166168213	-0.03964276611804969	0.3116483092308045	-8.076281547546387	-0.2279399186372752	0.2697356343269348	0.0005211037932895113	-0.01747475937008854	-8.49518871307373	1.445518732070923	-0.1727367639541637	0	0	0	0	0	0	0	0	0	0	0	0	0	0	0	0	0	0	nan	nan	nan	nan	nan	nan	nan	nan	nan	nan	nan	nan	-0.1854070574045181	0.5246436595916748	-0.183188483119011	-0.1689775586128235	0.5913111567497253	0.1231163814663886	0.0880686864256859	0.2087814062833786	-0.06682614982128143	0.1135914251208305	0.2541533410549164	0.05771224573254585	-0.01990638300776482	0.05291736871004105	-0.01037348713725806	-0.01455532386898995	0.06435783952474594	0.05024661496281623	256.7200012207031	0.07899999618532701	396.4200134277344	0	0	0	-254.3016204833985	-0.508408188819871	231.3088226318359	-0.03163701295852661	-0.252308189868927	0.008816275745630276	-888.013427734375	317.9638061523438	339.6008300781249	-0.03163701295852661	-0.252308189868927	0.008816275745630276	270.5775756835938	6.312626361846926	28.1900672912598	-456.2292785644531	-62.64169692993164	46.75343322753901	-23.10623359680175	-3.437067985534669	-18.78737831115723	-262.7267150878906	-37.80397415161133	-26.13141822814944	12.31126022338867	-0.7405065298080444	0.7296496033668534	339.7377319335938	-39.09864044189453	11.05403518676762	nan	nan	nan	nan	nan	nan	nan	nan	nan	nan	nan	nan	nan	nan	nan	nan	nan	nan	-27.73784065246582	-5.459091186523436	29.98772621154785	-0.6633694767951999	-4.169178962707518	27.59010887145996	3.459444522857665	-0.08584727346897082	6.935633659362793	19.66808319091797	0.04197287932038352	7.420932769775393	-0.3473918735980988	-2.50442360971794e-16	-0.09415104240179066	-0.7715695500373844	3.711345277320855e-15	3.070154190063477	0	0	0	-8.811169624328615	-13.5677375793457	14.46193504333496	-8.811169624328615	-13.5677375793457	14.46193504333496	
